<?xml version="1.0" encoding="UTF-8" standalone="no"?><svg width="100%" height="100%" viewBox="0 0 512 456" version="1.1" xmlns="http://www.w3.org/2000/svg" xmlns:xlink="http://www.w3.org/1999/xlink" xml:space="preserve"  style="fill-rule:evenodd;clip-rule:evenodd;stroke-linejoin:round;stroke-miterlimit:2;"><path d="M256,455.516c-7.289,0 -14.316,-2.641 -19.793,-7.438c-20.684,-18.086 -40.625,-35.082 -58.219,-50.074l-0.09,-0.078c-51.582,-43.957 -96.125,-81.918 -127.117,-119.313c-34.644,-41.804 -50.781,-81.441 -50.781,-124.742c0,-42.07 14.426,-80.883 40.617,-109.293c26.504,-28.746 62.871,-44.578 102.414,-44.578c29.555,0 56.621,9.344 80.446,27.77c12.023,9.3 22.921,20.683 32.523,33.96c9.605,-13.277 20.5,-24.66 32.527,-33.96c23.825,-18.426 50.891,-27.77 80.446,-27.77c39.539,0 75.91,15.832 102.414,44.578c26.191,28.41 40.613,67.223 40.613,109.293c0,43.301 -16.133,82.938 -50.777,124.738c-30.993,37.399 -75.532,75.356 -127.106,119.309c-17.625,15.016 -37.597,32.039 -58.328,50.168c-5.473,4.789 -12.504,7.43 -19.789,7.43Z" style="fill-rule:nonzero;"/></svg>